# xmcd
#
# Track frame offsets:
#	183
#	23508
#	68008
#	94908
#	115508
#	143770
#	164345
#	204258
#	228708
#	260208
#
# Disc length: 3794
#
# Revision: 1
# Processed by: cddbd v1.5.1PL0 Copyright (c) Steve Scherf et al.
# Submitted via: CDex 1.50Beta5
# Normalized: r0:DSETVAR1,TDELIM( - )
#
DISCID=820ed00a
DTITLE=Various Artist - nuova era n°12
DYEAR=1996
DGENRE=New Age
TTITLE0=Sonicambience - 4 dimensional
TTITLE1=Erewhon Project - The down of a new age
TTITLE2=Rojo - Nocturnal afternoon
TTITLE3=Ron Korb - Mirage
TTITLE4=Native Flute Ensemble - House of Whirlwinds
TTITLE5=Richard Burmer - Apples on the Windowsill
TTITLE6=Endagered Species - Inner Rhythm
TTITLE7=Mannheim Steamroller - Nepenthe
TTITLE8=Philip Riley - Traveller
TTITLE9=Perry Silverbird - Om-Ai-Ya-Mai
EXTD=YEAR: 1996
EXTT0=
EXTT1=
EXTT2=
EXTT3=
EXTT4=
EXTT5=
EXTT6=
EXTT7=
EXTT8=
EXTT9=
PLAYORDER=
